<svg width="40" height="40" viewBox="0 0 40 40" fill="none" xmlns="http://www.w3.org/2000/svg">
<mask id="mask0_357_84" style="mask-type:alpha" maskUnits="userSpaceOnUse" x="0" y="0" width="40" height="40">
<rect width="40" height="40" fill="#001F34"/>
</mask>
<g mask="url(#mask0_357_84)">
<path d="M26.4441 36.6666L19.6108 29.8333L21.583 27.8611L26.4441 32.7222L36.3608 22.8055L38.333 24.7778L26.4441 36.6666ZM19.9441 18.1388L33.6663 9.44438H6.22188L19.9441 18.1388ZM19.9441 20.9166L6.11076 12.111V30.2222H16.083L18.8608 33H6.11076C5.36076 33 4.7103 32.7245 4.15938 32.1736C3.60847 31.6226 3.33301 30.9722 3.33301 30.2222V9.44438C3.33301 8.69438 3.60847 8.04392 4.15938 7.493C4.7103 6.94208 5.36076 6.66663 6.11076 6.66663H33.8053C34.5552 6.66663 35.2057 6.94208 35.7566 7.493C36.3075 8.04392 36.583 8.69438 36.583 9.44438V18.6389L33.8053 21.4167V12.111L19.9441 20.9166Z" fill="#001F34"/>
</g>
</svg>
