<svg width="32" height="32" viewBox="0 0 32 32" fill="none" xmlns="http://www.w3.org/2000/svg">
<g clip-path="url(#clip0_136_153)">
<path d="M1.33496 3.46561C1.33496 2.2874 2.29009 1.33228 3.46829 1.33228H30.6682V28.5323C30.6682 29.7105 29.7132 30.6656 28.5349 30.6656H3.46829C2.29009 30.6656 1.33496 29.7105 1.33496 28.5323V3.46561Z" fill="white"/>
<path d="M3.55555 0C1.59467 0 0 1.59467 0 3.55555V28.4445C0 30.4053 1.59467 32 3.55555 32H15.3264H20.2916H28.4445C30.4053 32 32 30.4053 32 28.4445V3.55555C32 1.59467 30.4053 0 28.4445 0H3.55555ZM3.55555 3.55555H28.4445L28.4479 28.4445H20.2916V21.3958H24.4965L25.1215 16.5521H20.3195V13.4653C20.3195 12.0644 20.7099 11.1181 22.7187 11.1181H25.257V6.79514C24.0214 6.66892 22.7809 6.60755 21.5382 6.61111C17.8511 6.61111 15.3264 8.8615 15.3264 12.9931V16.559H11.1597V21.4028H15.3264V28.4445H3.55555V3.55555Z" fill="#001F34"/>
</g>
<defs>
<clipPath id="clip0_136_153">
<rect width="32" height="32" fill="white"/>
</clipPath>
</defs>
</svg>
