<svg width="32" height="32" viewBox="0 0 32 32" fill="none" xmlns="http://www.w3.org/2000/svg">
<g clip-path="url(#clip0_136_156)">
<path d="M25.3379 1.33228H6.67122C3.72571 1.33228 1.33789 3.72009 1.33789 6.66561V25.3323C1.33789 28.2778 3.72571 30.6656 6.67122 30.6656H25.3379C28.2834 30.6656 30.6712 28.2778 30.6712 25.3323V6.66561C30.6712 3.72009 28.2834 1.33228 25.3379 1.33228Z" fill="white"/>
<path d="M8.88889 0C3.98755 0 0 3.98755 0 8.88889V23.1111C0 28.0125 3.98755 32 8.88889 32H23.1111C28.0125 32 32 28.0125 32 23.1111V8.88889C32 3.98755 28.0125 0 23.1111 0H8.88889ZM8.88889 3.55555H23.1111C26.0515 3.55555 28.4445 5.94845 28.4445 8.88889V23.1111C28.4445 26.0515 26.0515 28.4445 23.1111 28.4445H8.88889C5.94845 28.4445 3.55555 26.0515 3.55555 23.1111V8.88889C3.55555 5.94845 5.94845 3.55555 8.88889 3.55555ZM24.8889 5.33333C24.4174 5.33333 23.9652 5.52063 23.6318 5.85404C23.2985 6.18744 23.1111 6.63962 23.1111 7.11111C23.1111 7.5826 23.2985 8.03479 23.6318 8.36819C23.9652 8.70159 24.4174 8.88889 24.8889 8.88889C25.3604 8.88889 25.8126 8.70159 26.1459 8.36819C26.4794 8.03479 26.6667 7.5826 26.6667 7.11111C26.6667 6.63962 26.4794 6.18744 26.1459 5.85404C25.8126 5.52063 25.3604 5.33333 24.8889 5.33333ZM16 7.11111C11.0987 7.11111 7.11111 11.0987 7.11111 16C7.11111 20.9013 11.0987 24.8889 16 24.8889C20.9013 24.8889 24.8889 20.9013 24.8889 16C24.8889 11.0987 20.9013 7.11111 16 7.11111ZM16 10.6667C18.9405 10.6667 21.3333 13.0595 21.3333 16C21.3333 18.9405 18.9405 21.3333 16 21.3333C13.0595 21.3333 10.6667 18.9405 10.6667 16C10.6667 13.0595 13.0595 10.6667 16 10.6667Z" fill="#001F34"/>
</g>
<defs>
<clipPath id="clip0_136_156">
<rect width="32" height="32" fill="white"/>
</clipPath>
</defs>
</svg>
