<svg width="32" height="32" viewBox="0 0 32 32" fill="none" xmlns="http://www.w3.org/2000/svg">
<g clip-path="url(#clip0_136_161)">
<path d="M26.6667 0H5.33333C2.38781 0 0 2.38781 0 5.33333V26.6667C0 29.6122 2.38781 32 5.33333 32H26.6667C29.6122 32 32 29.6122 32 26.6667V5.33333C32 2.38781 29.6122 0 26.6667 0Z" fill="white"/>
<path d="M3.55555 0C1.59111 0 0 1.59111 0 3.55555V28.4445C0 30.4089 1.59111 32 3.55555 32H28.4445C30.4089 32 32 30.4089 32 28.4445V3.55555C32 1.59111 30.4089 0 28.4445 0H3.55555ZM3.55555 5.68889C3.55555 4.51069 4.51068 3.55555 5.68889 3.55555H26.3111C27.4893 3.55555 28.4445 4.51068 28.4445 5.68889V26.3111C28.4445 27.4893 27.4893 28.4445 26.3111 28.4445H5.68889C4.51069 28.4445 3.55555 27.4893 3.55555 26.3111V5.68889ZM8.49652 5.89583C6.97297 5.89583 6.05903 6.81169 6.05903 8.03125C6.05903 9.25081 6.97309 10.1632 8.34375 10.1632C9.86731 10.1632 10.7812 9.25081 10.7812 8.03125C10.7812 6.81169 9.86719 5.89583 8.49652 5.89583ZM8.31389 12.4445C7.13568 12.4445 6.18055 13.3996 6.18055 14.5778V22.7555C6.18055 23.9338 7.13568 24.8889 8.31389 24.8889H8.53333C9.71154 24.8889 10.6667 23.9338 10.6667 22.7555V14.5778C10.6667 13.3996 9.71154 12.4445 8.53333 12.4445H8.31389ZM16.5014 12.4445C15.3232 12.4445 14.3681 13.3996 14.3681 14.5778V22.7555C14.3681 23.9338 15.3232 24.8889 16.5014 24.8889H16.7209C17.899 24.8889 18.8542 23.9338 18.8542 22.7555V18.0868C18.8542 16.0619 20.2989 15.7709 20.7326 15.7709C21.1664 15.7709 22.3264 16.2059 22.3264 18.0868V22.7555C22.3264 23.9338 23.2815 24.8889 24.4597 24.8889H24.5333C25.7116 24.8889 26.6667 23.9338 26.6667 22.7555V18.0868C26.6667 14.181 24.9311 12.4445 22.7604 12.4445C21.4078 12.4445 20.4485 12.7251 19.7777 13.1818C19.4692 13.3918 18.8542 13.1814 18.8542 12.8082C18.8542 12.6073 18.6913 12.4445 18.4905 12.4445H16.5014Z" fill="#001F34"/>
</g>
<defs>
<clipPath id="clip0_136_161">
<rect width="32" height="32" fill="white"/>
</clipPath>
</defs>
</svg>
