<svg width="32" height="32" viewBox="0 0 32 32" fill="none" xmlns="http://www.w3.org/2000/svg">
<g clip-path="url(#clip0_136_164)">
<path d="M26.6667 0H5.33333C2.38781 0 0 2.38781 0 5.33333V26.6667C0 29.6122 2.38781 32 5.33333 32H26.6667C29.6122 32 32 29.6122 32 26.6667V5.33333C32 2.38781 29.6122 0 26.6667 0Z" fill="white"/>
<path d="M5.33333 0C2.40894 0 0 2.40894 0 5.33333V26.6667C0 29.591 2.40894 32 5.33333 32H26.6667C29.591 32 32 29.591 32 26.6667V5.33333C32 2.40894 29.591 0 26.6667 0H5.33333ZM5.33333 3.55555H26.6667C27.6711 3.55555 28.4445 4.32883 28.4445 5.33333V26.6667C28.4445 27.6711 27.6711 28.4445 26.6667 28.4445H5.33333C4.32883 28.4445 3.55555 27.6711 3.55555 26.6667V5.33333C3.55555 4.32883 4.32883 3.55555 5.33333 3.55555ZM16 7.11111V19.5555C16 20.56 15.2267 21.3333 14.2222 21.3333C13.2177 21.3333 12.4445 20.56 12.4445 19.5555C12.4445 18.551 13.2177 17.7778 14.2222 17.7778V14.2222C11.2978 14.2222 8.88889 16.6311 8.88889 19.5555C8.88889 22.4799 11.2978 24.8889 14.2222 24.8889C17.1466 24.8889 19.5555 22.4799 19.5555 19.5555V12.8576C20.6509 13.638 21.794 14.2222 23.1111 14.2222V10.6667C23.027 10.6667 21.8003 10.2772 20.9444 9.53125C20.0885 8.78528 19.5555 7.84888 19.5555 7.11111H16Z" fill="#001F34"/>
</g>
<defs>
<clipPath id="clip0_136_164">
<rect width="32" height="32" fill="white"/>
</clipPath>
</defs>
</svg>
