<svg width="32" height="32" viewBox="0 0 32 32" fill="none" xmlns="http://www.w3.org/2000/svg">
<path d="M29.8652 7.39942C28.8444 7.85276 27.7479 8.15782 26.5969 8.29542C27.7724 7.59142 28.6737 6.47676 29.0983 5.14769C27.9996 5.79942 26.7815 6.27302 25.4844 6.52902C24.4465 5.42289 22.9681 4.73169 21.3319 4.73169C18.1895 4.73169 15.6423 7.27996 15.6423 10.4213C15.6423 10.8671 15.6935 11.3023 15.7895 11.7172C11.0609 11.4804 6.86899 9.21489 4.06153 5.77169C3.57299 6.61222 3.29246 7.58929 3.29246 8.63356C3.29246 10.6069 4.29619 12.3487 5.82259 13.3684C4.89033 13.3386 4.01246 13.0826 3.24553 12.657C3.24553 12.6815 3.24553 12.7039 3.24553 12.7284C3.24553 15.4858 5.20606 17.7855 7.80979 18.3071C7.33299 18.4372 6.82953 18.5066 6.31006 18.5066C5.94419 18.5066 5.58686 18.4703 5.24019 18.4052C5.96446 20.6655 8.06579 22.3114 10.5554 22.3572C8.60873 23.8836 6.15539 24.7935 3.48873 24.7935C3.03006 24.7935 2.57673 24.7668 2.13086 24.7135C4.64926 26.3274 7.63913 27.2692 10.8529 27.2692C21.3191 27.2692 27.0407 18.5994 27.0407 11.0804C27.0407 10.834 27.0353 10.5888 27.0247 10.3445C28.1372 9.54128 29.1025 8.53969 29.8652 7.39942Z" fill="white"/>
</svg>
